<?xml version="1.0" encoding="UTF-8"?><svg id="a" xmlns="http://www.w3.org/2000/svg" viewBox="0 0 196.94 200"><defs><style>.b{fill:#fff;}</style></defs><path class="b" d="M82.14,120.41l20.41-20.41-20.41-20.41,4.08-8.16,28.57,28.57-28.57,28.57-4.08-8.16Z"/><path class="b" d="M98.47,200C44.17,200,0,155.83,0,101.53v-3.06C0,44.17,44.17,0,98.47,0s98.47,44.17,98.47,98.47v3.06c0,54.3-44.17,98.47-98.47,98.47Zm0-196.43C46.14,3.57,3.57,46.14,3.57,98.47v3.06c0,52.33,42.57,94.9,94.9,94.9s94.9-42.57,94.9-94.9v-3.06C193.37,46.14,150.8,3.57,98.47,3.57Z"/></svg>